<svg width="360" height="360" viewBox="0 0 360 360" fill="none" xmlns="http://www.w3.org/2000/svg">
<path d="M128.141 280.664C125.41 280.664 123.106 279.896 121.229 278.36C119.522 276.995 118.669 275.117 118.669 272.728C118.669 269.827 119.096 267.437 119.949 265.56C120.973 263.683 121.485 261.208 121.485 258.136C121.485 251.48 119.778 245.507 116.365 240.216C112.952 234.755 108.258 228.952 102.285 222.808C94.9463 215.128 88.3757 208.216 82.573 202.072C76.7703 195.928 71.821 189.784 67.725 183.64C63.629 177.496 60.4717 170.755 58.253 163.416C56.205 155.907 55.181 147.032 55.181 136.792C55.181 127.235 57.229 118.019 61.325 109.144C65.5917 100.269 71.309 92.5893 78.477 86.104C85.8157 79.6187 94.0077 75.096 103.053 72.536C105.784 71.6827 108.514 71.1707 111.245 71C113.976 70.6587 116.706 70.488 119.437 70.488C127.117 70.488 134.797 71.8533 142.477 74.584C150.328 77.3147 157.41 81.1547 163.725 86.104C167.65 89.176 171.149 91.8213 174.221 94.04C177.293 96.2587 179.682 97.368 181.389 97.368C183.778 97.368 186.424 96.2587 189.325 94.04C192.226 91.6507 196.322 88.4933 201.613 84.568C205.197 81.8373 208.866 79.6187 212.621 77.912C216.546 76.0347 220.386 74.4987 224.141 73.304C227.213 72.28 230.285 71.5973 233.357 71.256C236.429 70.744 239.501 70.488 242.573 70.488C254.861 70.488 265.698 73.4747 275.085 79.448C284.642 85.2507 292.152 93.1867 297.613 103.256C303.074 113.325 305.805 124.675 305.805 137.304C305.805 148.227 303.16 159.405 297.869 170.84C292.578 182.104 284.13 193.539 272.525 205.144C264.845 212.824 255.97 220.419 245.901 227.928C236.002 235.437 225.506 242.52 214.413 249.176C203.32 255.661 192.312 261.293 181.389 266.072C170.637 271.021 160.482 274.691 150.925 277.08C145.293 278.445 140.6 279.384 136.845 279.896C133.09 280.408 130.189 280.664 128.141 280.664Z" fill="white"/>
</svg>
